<?xml version="1.0" standalone="no"?>
<!DOCTYPE svg PUBLIC "-//W3C//DTD SVG 20010904//EN"
 "http://www.w3.org/TR/2001/REC-SVG-20010904/DTD/svg10.dtd">
<svg version="1.0" xmlns="http://www.w3.org/2000/svg"
 width="300.000000pt" height="300.000000pt" viewBox="0 0 300.000000 300.000000"
 preserveAspectRatio="xMidYMid meet">
<metadata>
Created by potrace 1.10, written by Peter Selinger 2001-2011
</metadata>
<g transform="translate(0.000000,300.000000) scale(0.100000,-0.100000)"
fill="#000000" stroke="none">
<path d="M1595 2972 c-17 -10 -39 -32 -49 -47 -14 -21 -62 -286 -183 -1009
l-164 -981 -134 -135 c-73 -74 -140 -149 -149 -167 -20 -39 -20 -83 -2 -126
19 -45 246 -263 334 -321 150 -99 334 -163 497 -172 115 -7 97 7 -53 40 -271
60 -421 140 -617 328 -110 104 -125 128 -125 194 0 45 3 50 83 132 45 47 98
100 118 118 84 78 92 104 159 522 12 76 31 190 36 217 2 11 51 304 109 650 58
347 110 645 116 663 12 36 79 92 111 92 11 0 27 -4 37 -10 10 -5 62 -17 117
-26 251 -42 440 -134 611 -297 97 -93 168 -193 229 -322 67 -142 95 -260 101
-435 5 -142 6 -146 39 -206 55 -100 94 -208 125 -346 36 -161 48 -186 49 -100
0 124 -60 327 -134 453 -33 55 -33 58 -39 205 -7 192 -34 303 -116 469 -185
374 -547 609 -976 631 -87 5 -104 3 -130 -14z"/>
<path d="M1635 2922 c-42 -26 -52 -50 -75 -186 -32 -191 -29 -203 67 -231 59
-17 117 -71 134 -123 6 -19 9 -62 7 -97 -7 -114 -78 -175 -209 -183 -58 -3
-82 -9 -94 -22 -17 -19 -34 -108 -126 -657 -58 -346 -58 -374 -10 -381 20 -3
107 79 520 491 311 310 511 502 536 515 67 33 78 51 65 108 -43 194 -148 373
-308 525 -112 106 -220 176 -350 225 -101 39 -117 40 -157 16z m128 -46 c322
-121 554 -375 645 -707 l19 -67 -41 -12 c-35 -10 -119 -90 -555 -523 -486
-485 -513 -510 -506 -472 4 22 42 249 86 505 43 256 79 465 79 465 0 0 35 0
78 0 70 0 84 3 128 30 56 35 108 111 118 174 20 126 -79 265 -199 279 -25 2
-45 5 -45 6 0 0 11 66 25 146 14 80 25 148 25 153 0 15 41 47 60 47 11 0 48
-11 83 -24z"/>
<path d="M1737 2742 c-22 -24 -21 -55 1 -75 37 -34 92 -11 92 38 0 50 -60 73
-93 37z"/>
<path d="M1973 2464 c-15 -24 -15 -29 -2 -53 20 -36 71 -41 93 -9 21 30 20 44
-4 68 -28 28 -66 26 -87 -6z"/>
<path d="M2020 2233 c-70 -27 -116 -106 -105 -181 13 -90 113 -155 200 -131
53 15 111 74 120 123 14 72 -25 149 -89 180 -33 16 -96 20 -126 9z m130 -61
c62 -47 60 -154 -3 -192 -100 -61 -223 27 -187 134 26 79 122 108 190 58z"/>
<path d="M2015 2149 c-47 -42 -49 -96 -6 -140 41 -40 91 -40 132 0 43 44 41
98 -6 140 -20 17 -47 31 -60 31 -13 0 -40 -14 -60 -31z m109 -31 c9 -12 16
-32 16 -44 0 -23 -42 -64 -65 -64 -23 0 -65 41 -65 64 0 38 28 66 65 66 24 0
39 -7 49 -22z"/>
<path d="M1580 1790 c-11 -11 -20 -29 -20 -40 0 -22 33 -60 53 -60 27 0 57 31
57 60 0 18 -8 34 -22 44 -30 21 -44 20 -68 -4z"/>
<path d="M2163 2777 c11 -7 53 -34 95 -62 91 -59 223 -186 279 -270 94 -140
155 -299 175 -450 12 -98 28 -135 28 -66 0 65 -37 230 -68 308 -96 236 -266
430 -461 528 -50 26 -80 33 -48 12z"/>
<path d="M2130 2763 c0 -4 12 -19 27 -33 160 -151 308 -424 338 -620 6 -40 17
-55 106 -144 55 -54 103 -96 106 -92 4 4 -34 48 -85 99 -87 87 -92 95 -103
150 -33 179 -125 369 -252 518 -56 66 -137 139 -137 122z"/>
<path d="M1532 2465 c-12 -15 -22 -30 -22 -34 0 -3 -9 -60 -19 -125 -14 -80
-17 -125 -10 -137 51 -95 218 -39 259 87 33 99 -42 220 -144 231 -38 5 -45 2
-64 -22z m95 -25 c138 -62 92 -280 -59 -280 -56 0 -67 7 -59 38 5 15 16 80 26
145 21 130 20 130 92 97z"/>
<path d="M2384 2020 c-42 -26 -234 -225 -234 -242 0 -8 12 -30 26 -49 60 -78
77 -149 53 -220 -32 -95 -109 -144 -215 -137 -53 3 -72 10 -119 43 -47 32 -61
37 -81 29 -13 -5 -206 -191 -429 -413 -436 -435 -448 -449 -411 -505 49 -76
254 -188 421 -231 126 -33 298 -43 416 -25 449 68 811 408 904 849 54 257 7
536 -127 764 -81 139 -140 178 -204 137z m104 -55 c40 -45 103 -154 136 -235
68 -166 93 -392 62 -568 -70 -399 -365 -720 -761 -829 -91 -25 -114 -28 -265
-27 -135 1 -179 4 -242 22 -213 58 -418 176 -418 240 0 21 79 106 414 441
l414 415 40 -36 c165 -149 432 -13 409 207 -6 61 -27 107 -68 151 l-29 30 113
112 c130 127 146 134 195 77z"/>
<path d="M2390 1815 c-18 -22 -15 -66 6 -82 57 -42 128 33 76 80 -23 21 -66
22 -82 2z"/>
<path d="M2436 1454 c-19 -18 -21 -65 -4 -82 29 -29 98 -4 98 36 0 50 -61 80
-94 46z"/>
<path d="M2232 1233 c-18 -9 -44 -35 -57 -58 -84 -143 66 -301 214 -225 106
54 112 209 11 277 -40 28 -119 31 -168 6z m138 -38 c40 -21 60 -53 60 -97 0
-50 -14 -84 -43 -103 -116 -75 -248 47 -177 163 31 51 101 67 160 37z"/>
<path d="M2252 1165 c-38 -32 -48 -74 -28 -114 36 -69 99 -80 152 -27 44 44
45 82 3 131 -39 44 -83 47 -127 10z m107 -31 c21 -19 18 -74 -4 -90 -43 -32
-105 -5 -105 45 1 61 65 88 109 45z"/>
<path d="M1710 1130 c-32 -32 -24 -75 18 -91 53 -20 96 40 60 86 -24 30 -51
32 -78 5z"/>
<path d="M1875 866 c-108 -48 -148 -179 -86 -279 38 -58 91 -87 164 -87 161 0
249 197 139 313 -58 62 -148 83 -217 53z m135 -42 c51 -21 79 -60 86 -121 9
-87 -45 -152 -133 -160 -163 -14 -229 201 -83 275 53 26 76 27 130 6z"/>
<path d="M1910 813 c-41 -15 -90 -82 -90 -123 0 -65 67 -130 134 -130 47 0
113 56 122 105 16 87 -86 177 -166 148z m101 -62 c60 -61 24 -151 -61 -151
-55 0 -90 34 -90 88 0 85 91 122 151 63z"/>
<path d="M1387 789 c-44 -23 -73 -66 -82 -121 -5 -30 -1 -49 17 -85 52 -105
166 -128 253 -52 142 125 -19 347 -188 258z m112 -29 c48 -13 79 -46 86 -90
13 -78 -43 -140 -125 -140 -34 0 -48 6 -76 34 -29 29 -34 41 -34 83 0 57 19
89 64 109 38 16 42 16 85 4z"/>
<path d="M1405 719 c-47 -41 -49 -92 -6 -138 50 -54 127 -37 157 36 13 30 13
38 -2 69 -17 36 -58 64 -93 64 -11 0 -36 -14 -56 -31z m109 -28 c25 -27 17
-70 -17 -95 -26 -19 -30 -19 -55 -5 -62 34 -47 119 22 119 20 0 40 -8 50 -19z"/>
<path d="M2248 779 c-62 -35 -25 -125 42 -104 47 15 50 83 5 103 -30 14 -26
14 -47 1z"/>
<path d="M375 1834 c-215 -33 -365 -118 -365 -206 l0 -32 49 55 c35 39 68 64
113 84 110 50 172 59 408 59 192 1 223 -1 292 -21 96 -27 164 -62 203 -103 30
-31 30 -31 29 -150 -1 -146 -17 -217 -77 -339 -47 -93 -134 -167 -252 -211
-94 -36 -305 -36 -400 0 -188 70 -278 193 -330 445 -23 116 -34 132 -34 52 -2
-205 107 -415 256 -494 101 -54 163 -67 308 -67 145 0 207 13 308 67 114 60
206 196 242 357 9 41 19 125 22 185 7 126 -1 150 -63 205 -121 105 -437 156
-709 114z"/>
<path d="M405 1775 c-156 -25 -249 -60 -303 -114 -33 -34 -39 -59 -22 -91 21
-39 44 -42 127 -15 135 45 205 55 368 55 159 0 241 -11 354 -50 80 -27 115
-26 133 3 40 65 -30 139 -172 181 -28 8 -55 15 -58 14 -4 -1 -14 1 -22 5 -32
12 -174 27 -248 26 -42 -1 -113 -7 -157 -14z m342 -36 c109 -15 225 -55 269
-93 32 -28 36 -36 30 -60 -5 -20 -12 -27 -24 -23 -9 3 -50 17 -91 31 -105 37
-225 56 -356 56 -131 0 -251 -19 -356 -56 -41 -14 -82 -28 -91 -31 -12 -4 -19
3 -24 23 -10 41 44 85 149 118 134 44 331 58 494 35z"/>
<path d="M1983 1627 c-112 -112 -121 -132 -81 -182 56 -71 180 -74 251 -7 78
74 83 179 12 257 -50 54 -65 49 -182 -68z m161 43 c48 -58 46 -137 -6 -196
-55 -63 -148 -66 -210 -7 l-28 27 102 103 c56 57 106 103 109 103 4 0 19 -14
33 -30z"/>
<path d="M2783 1618 c87 -205 117 -330 117 -488 0 -450 -293 -847 -725 -983
-231 -73 -487 -59 -719 39 -97 41 -114 43 -62 7 139 -93 407 -141 620 -109
130 20 200 42 321 102 170 84 333 233 428 389 30 49 94 186 111 238 78 233 51
585 -59 773 -24 41 -44 61 -32 32z"/>
<path d="M2753 1597 c14 -38 29 -247 23 -327 -27 -345 -209 -660 -493 -851
-122 -83 -275 -147 -415 -174 -74 -15 -342 -15 -453 0 -36 4 -45 3 -34 -4 27
-17 186 -41 275 -41 576 0 1058 424 1135 997 18 139 -2 390 -34 410 -6 4 -8 0
-4 -10z"/>
<path d="M390 1570 c-36 -5 -87 -18 -113 -30 -39 -17 -48 -26 -45 -43 2 -12
12 -23 23 -26 11 -2 23 -7 26 -12 3 -5 21 -11 40 -13 19 -3 52 -9 74 -15 21
-5 103 -10 180 -10 77 0 159 5 180 10 22 6 56 12 75 15 19 2 36 8 38 14 2 5
12 10 22 10 10 0 22 5 25 10 9 14 -14 12 -92 -7 -101 -25 -389 -25 -500 1 -46
10 -83 22 -83 26 0 4 42 16 93 26 130 27 378 26 498 -2 95 -22 114 -10 31 19
-97 34 -308 46 -472 27z"/>
<path d="M97 1455 c-10 -9 -17 -22 -18 -28 -5 -60 21 -160 64 -240 86 -162
248 -238 477 -224 148 10 242 49 322 135 109 117 170 344 98 367 -18 6 -90
-14 -129 -34 -17 -9 -58 -17 -156 -31 -86 -12 -382 -5 -430 9 -22 7 -67 22
-100 33 -88 30 -109 32 -128 13z m29 -14 c15 -15 145 -57 219 -72 44 -9 132
-14 240 -13 189 1 306 21 405 68 30 14 55 26 56 26 8 0 -40 -183 -60 -226 -67
-146 -209 -224 -411 -224 -202 0 -344 78 -411 224 -26 56 -67 226 -55 226 4 0
11 -4 17 -9z"/>
<path d="M2969 1040 c-9 -30 -28 -104 -43 -165 -28 -119 -95 -268 -164 -370
-23 -32 -76 -95 -119 -138 -159 -161 -355 -264 -598 -313 -43 -8 -93 -22 -110
-30 -28 -13 -24 -14 60 -10 50 3 126 15 170 26 95 25 257 101 346 161 83 56
234 207 288 286 119 178 200 420 189 563 l-3 45 -16 -55z"/>
</g>
</svg>
