<svg xmlns="http://www.w3.org/2000/svg" viewBox="0 0 84 36" fill="none" class="w-[84px] text-brand-dark"><g fill="currentColor" clip-path="url(#logotype_svg)"><path d="M24.258 26.122v4.86c0 .301-1.29.11-1.558.06-2.336-.44-4.065-2.62-5.552-4.287-6.269 2.683-15.59.027-16.953-7.333C-1.881 8.22 13.152 3.795 20.517 10.344c4.106 3.653 4.203 10.24.3 14.058.94.887 2.058 1.825 3.44 1.72ZM10.482 15.505c3.094.055 5.17 2.44 6.963 4.633 2.413-5.427-2.98-9.658-8.158-7.696-3.01 1.14-4.45 4.182-3.173 7.202 1.249 2.952 4.869 4.016 7.815 3.266.259-.193.048-.216-.077-.377-.75-.959-2.09-1.997-3.368-1.944v-5.084h-.002ZM48.364 13.41v1.944l1.06-1.26c4.174-2.947 10.154-.516 11.033 4.51 1.147 6.555-4.852 11.45-10.795 8.088l-1.299-1.32v7.401l-.225.225h-4.566V13.41h4.793Zm3.267 3.623c-4.697.306-4.25 6.868.549 6.545 4.673-.313 4.261-6.859-.55-6.544Z"></path><path d="M32.907 12.859c5.042-.25 9.709 2.589 9.312 8.103-.637 8.858-16.053 9.1-17.35.584-.795-5.219 3.144-8.444 8.038-8.687Zm.305 4.178c-2.24.108-3.564 1.687-3.255 3.913.453 3.27 6.012 3.6 6.983.42.805-2.639-1.146-4.458-3.727-4.333h-.001ZM84 27.318H79.06l-.302-1.943c-2.297 3.644-10.58 3.289-10.468-1.846.077-3.479 3.595-4.184 6.353-4.433 1.065-.097 3.48.319 4.04-.902.888-1.933-3.837-2.061-4.858-1.11-.176.164-.404.814-.53.814h-4.867c.979-4.909 6.758-5.738 10.878-4.657 6.565 1.723 3.17 9.376 4.694 14.079l.002-.002Zm-5.24-5.982c-1.138.491-4.792-.1-5.312 1.049-.953 2.107 3.158 2.195 4.406 1.26.677-.506.909-1.496.906-2.308ZM66.778 8.177h-4.791v19.14h4.79V8.177Z"></path></g><defs><clipPath id="logotype_svg"><path fill="#fff" d="M0 7.29h84V33H0z"></path></clipPath></defs></svg>
