<svg xmlns="http://www.w3.org/2000/svg" viewBox="0 0 600 800">
  <defs>
    <linearGradient id="grad-thukpa" x1="0%" y1="100%" x2="100%" y2="0%">
      <stop offset="0%" stop-color="#3d7bf6" />
      <stop offset="50%" stop-color="#5ac8fa" />
      <stop offset="100%" stop-color="#8ef5ff" />
    </linearGradient>
    <linearGradient id="steam" x1="0" y1="1" x2="0" y2="0">
      <stop offset="0%" stop-color="#ffffff" stop-opacity="0" />
      <stop offset="50%" stop-color="#ffffff" stop-opacity="0.45" />
      <stop offset="100%" stop-color="#ffffff" stop-opacity="0" />
    </linearGradient>
  </defs>
  <rect width="600" height="800" fill="url(#grad-thukpa)" rx="48" />
  <ellipse cx="300" cy="540" rx="220" ry="180" fill="#ffe9d6" opacity="0.3" />
  <ellipse cx="300" cy="500" rx="190" ry="130" fill="#ffffff" opacity="0.6" />
  <ellipse cx="300" cy="470" rx="170" ry="100" fill="#ffbd80" opacity="0.9" />
  <path d="M160 470 C200 420 400 420 440 470" fill="none" stroke="#ff8a65" stroke-width="16" stroke-linecap="round" opacity="0.6" />
  <g stroke="#ffffff" stroke-width="8" stroke-linecap="round" opacity="0.9">
    <path d="M240 350 C220 310 230 280 250 250" />
    <path d="M300 340 C280 300 290 270 310 240" />
    <path d="M360 350 C340 310 350 280 370 250" />
  </g>
  <rect x="150" y="590" width="300" height="14" rx="7" fill="url(#steam)" opacity="0.6" />
  <text x="60" y="660" fill="#072c53" font-size="48" font-family="'Poppins', 'Segoe UI', sans-serif" font-weight="700">Thukpa</text>
  <text x="60" y="710" fill="#072c53" font-size="26" font-family="'Poppins', 'Segoe UI', sans-serif" font-weight="500">Aromatic Himalayan noodle soup</text>
</svg>
